<svg class="svg-icon" style="width: 1em;height: 1em;vertical-align: middle;fill: currentColor;overflow: hidden;" viewBox="0 0 1024 1024" version="1.1" xmlns="http://www.w3.org/2000/svg"><path d="M621.184 208c22.336 2.688 39.04 21.376 37.632 44.16-1.408 8.064 0 18.752 1.408 24.064 93.312 10.752 183.872 100.48 220.16 219.52 40.32 133.888 1.344 259.712-103.168 337.344-128.128 95.04-319.04 26.752-374.72 4.032-12.544-5.376-30.72-10.752-47.36-16.064 0 21.376-1.408 36.096-1.408 36.096 0 22.784-18.112 38.848-40.448 38.848h-2.752a40.128 40.128 0 0 1-39.04-42.88s0.512-13.12 0.64-32.64v-15.68a1045.12 1045.12 0 0 0-0.64-26.56c0-14.72 7.04-28.16 19.52-37.504 32-21.44 111.488 6.656 144.896 20.096 45.952 18.688 200.64 73.6 292.608 6.656 76.608-56.192 104.448-151.232 73.792-251.648-27.84-85.632-91.904-155.264-153.216-160.64a73.088 73.088 0 0 1-51.584-25.408c-26.432-30.784-22.272-77.632-22.272-85.632 2.752-21.44 22.272-37.504 45.952-36.16z m-133.76-14.72c22.336 6.656 34.88 28.096 29.312 49.536 0 1.28-9.792 34.752 0 76.288 1.344 6.656 11.136 20.032 20.864 32.128 40.384 53.504 114.24 152.576-11.136 266.368-61.312 54.848-122.624 61.568-163.008 61.568-15.36 0-30.656-1.344-43.2-1.344-11.136-1.344-22.272-1.344-32-1.344-34.88 0-76.672 28.16-76.672 61.568V806.4c0 21.376-19.52 40.128-41.792 40.128-23.68 0-41.792-17.408-41.792-40.128v-68.288c0-83.008 83.584-140.544 158.848-141.888 13.888 0 26.432 1.344 39.04 1.344 12.48 1.28 25.024 1.28 37.568 1.28 30.656 0 66.88-5.312 105.856-40.128 65.536-58.88 50.176-94.976 0-160.64-15.296-20.032-29.248-38.784-34.816-60.16a221.632 221.632 0 0 1 1.408-116.48 43.072 43.072 0 0 1 51.52-28.16z m257.792 444.352a39.936 39.936 0 0 1 13.888 54.912c-1.344 2.688-19.456 29.44-44.544 49.536-25.088 20.096-55.68 30.72-58.496 32.128-7.04 1.28-11.2 2.688-15.36 2.688a41.856 41.856 0 0 1-39.04-26.816 38.848 38.848 0 0 1 25.088-50.816c5.568-1.344 22.336-9.408 34.88-18.752 12.544-9.408 22.272-24.128 26.432-29.44a43.584 43.584 0 0 1 57.152-13.44z" fill="#000000" /></svg>