<svg class="svg-icon" style="width: 1em; height: 1em;vertical-align: middle;fill: currentColor;overflow: hidden;" viewBox="0 0 1024 1024" version="1.1" xmlns="http://www.w3.org/2000/svg"><path d="M915.146315 170.777525c-0.215918-0.850367-0.515746-1.676176-0.89437-2.467191-26.343995-55.011918-64.824401-82.905198-114.369817-82.905198-0.818645 0-1.64036 0.007163-2.465145 0.022513-0.546446-0.00921-1.089821-0.013303-1.638313-0.013303-39.799448 0-75.664284 24.108071-106.633622 71.66418-56.274678 38.490639-118.629841 59.662845-175.8521 59.662845-51.111075 0-95.610568-17.011442-125.34273-47.907103-34.867112-39.887452-76.105329-77.035514-122.5665-110.406552-0.864694-0.621147-1.801019-1.136893-2.789533-1.534959-12.135388-4.889357-24.075325-7.368828-35.488259-7.368828-25.920346 0-49.25889 12.453636-69.411883 37.023218-3.944845 1.478677-8.016581 2.175549-12.604062 2.175549-4.347005 0-8.575306-0.624217-12.663414-1.227967-3.962242-0.585331-7.704472-1.137916-11.487635-1.137916-6.447852 0-11.669784 1.669012-15.962553 5.102205-20.999266 16.590863-28.982078 42.033325-23.732517 75.622328 7.7935 65.793472 9.93528 111.86681 6.370081 136.971581C68.786131 386.194736 62.961472 462.639802 70.304717 531.265786c7.413853 69.2809 28.431539 132.503826 62.470797 187.91381 0.190335 0.310062 0.39295 0.611937 0.607844 0.904603 12.504802 17.049305 18.675338 33.042557 18.352997 47.560202-0.893346 4.565992 0.066515 9.190313 2.764973 13.007245 4.897543 6.924713 14.561647 10.149151 30.417777 10.149151 8.444323 0 17.781992-0.942465 25.617447-2.585895 9.456373-1.984191 19.507286-5.26798 22.344914-14.582113 1.091868-3.582595 0.780783-7.267521-0.731664-10.539031 0.998747-8.909927 6.582929-19.891026 16.33913-32.050973 31.028691-37.735439 76.949556-122.45189 36.374442-266.215154-0.049119-0.172939-0.101307-0.344854-0.157589-0.515746-9.233292-28.271904-14.611789-92.278683-18.539238-139.015124-0.966001-11.494799-1.851161-22.029736-2.717901-31.309076 21.982664 10.751878 40.379663 21.99699 48.944735 33.486672 1.11745 1.499144 2.537799 2.745531 4.169973 3.659343 54.984289 30.769794 117.121488 46.370097 184.685279 46.370097 85.663008-0.001023 177.341011-24.918529 267.981381-72.496128 45.334511 88.180342 41.300638 177.170119-12.245905 271.739984-4.417613 7.7935-17.654079 12.635785-34.542724 12.635785-27.725458 0-56.750515-12.292977-73.947176-31.31624-1.774413-1.963725-4.096295-3.353374-6.665817-3.990894-24.51637-6.079462-47.026036-9.162684-66.902736-9.162684-34.163077 0-62.011332 9.054213-82.770122 26.90886-20.654412 17.765619-34.277688 44.279483-40.497343 78.839603-9.788947 55.31891-13.126972 105.09764-9.91993 147.95575 3.264347 43.6348 13.408381 81.449034 30.149671 112.393813 0.023536 0.044002 0.047072 0.086981 0.071631 0.130983l18.998703 34.19787-4.1536 11.213389c-1.518586 4.101411-0.925069 8.68787 1.590218 12.267395 2.491751 3.547803 6.554276 5.65479 10.884908 5.65479 0.038886 0 0.078795 0 0.11768-0.001023l61.96426-0.549515c4.556783-0.039909 8.774851-2.408863 11.180644-6.28003s2.662643-8.702196 0.681522-12.806677l-6.481621-13.425777 9.232269-28.919656c0.062422-0.192382 0.118704-0.38681 0.171915-0.582261 12.361539-45.841048 18.46556-86.221734 18.141172-120.021537-0.306992-32.050973-6.395664-59.241242-18.113543-80.94966 6.229888-13.438057 13.284561-13.438057 16.495696-13.438057 4.969175 0 13.863752 1.940189 27.92398 11.124362 54.54836 36.235272 99.255585 53.111638 140.698462 53.110615 26.40437-0.001023 51.389414-6.936993 76.384691-21.204951 22.028713-12.573363 44.813648-31.4155 69.656453-57.603953 0.672312-0.709151 1.263783-1.489934 1.766226-2.328022C991.937259 542.060643 948.444698 301.714669 915.146315 170.777525zM887.010511 665.690358c-46.416146 48.657186-84.070744 69.437465-125.71726 69.438489-35.963073 0.001023-75.992765-15.46318-126.060067-48.722678-15.978926-10.437723-29.901007-15.512299-42.561351-15.512299-14.069437 0-33.087583 6.359848-43.793412 36.654828-1.341554 3.796466-0.890276 7.995091 1.223874 11.42112 23.304775 37.740556 23.451108 100.228749 0.436952 185.719842l-10.753925 33.682124c-0.958838 3.001357-0.818645 6.237051 0.379647 9.133008l-21.765723 0.192382c0.900509-3.327792 0.476861-6.894014-1.212618-9.93528l-21.928429-39.470967c-30.192649-55.859215-36.049031-137.617287-17.407462-242.957451 10.290367-57.184397 41.136909-83.816964 97.074919-83.816964 16.720823 0 35.786041 2.51017 56.722886 7.466042 26.589588 27.207665 64.004733 37.003775 90.792842 37.003775 27.251667 0 48.278563-9.520841 57.691957-26.126031 57.101509-100.849896 61.72583-200.023616 13.808494-294.949592l28.284183-20.429285c5.815449-4.200672 7.252171-12.255115 3.248997-18.207687-4.002151-5.952572-12.005428-7.6574-18.088984-3.857864-103.090936 64.425312-208.950939 98.478895-306.137399 98.479919-62.014402 0-118.985952-14.027481-169.388898-41.704844-21.313422-25.944905-70.40449-46.228881-117.92683-65.865103l-7.728008-3.195785c-6.713912-2.781346-14.416338 0.338714-17.301038 7.007601-2.885723 6.66991 0.11461 14.420431 6.738471 17.408485 4.935406 2.226714 8.9263 3.984754 12.261255 5.454222 13.840216 6.097882 15.159258 6.67912 28.086685 16.591887 1.164522 11.186783 2.337231 25.142633 3.664459 40.931225 4.249791 50.568722 9.535167 113.469308 19.674085 144.778384 27.561729 97.869005 16.401552 183.76942-31.43392 241.896282-0.032746 0.040932-0.066515 0.080841-0.099261 0.122797-13.883195 17.283642-21.212114 32.967856-22.278399 47.752584-5.076622 1.087774-12.644995 2.12029-20.596084 2.12029-2.724041 0-4.91187-0.130983-6.610558-0.311085-0.663102-19.046798-8.429996-38.888705-23.140023-59.080583-63.860447-104.275925-77.827553-237.283218-41.502229-395.324674 0.079818-0.346901 0.145309-0.695848 0.197498-1.047866 4.069689-27.719318 2.032286-75.060533-6.227842-144.727219-0.020466-0.170892-0.044002-0.340761-0.070608-0.511653-3.695159-23.367197 0.598634-39.810704 13.127995-50.223868 0.074701-0.002047 0.155543-0.00307 0.246617-0.00307 1.828648 0 4.631484 0.414439 7.600095 0.852414 4.567016 0.674359 10.250458 1.51347 16.550954 1.51347 9.528004 0 18.209734-1.899256 26.54047-5.807263 1.888-0.88516 3.541663-2.202155 4.826935-3.844561 15.560394-19.881816 32.127721-29.546943 50.64854-29.546943 7.55814 0 15.657608 1.638313 24.096814 4.871961 44.351114 31.997762 83.678818 67.509557 116.91478 105.570407 0.134053 0.154519 0.273223 0.304945 0.414439 0.453325 34.797527 36.320207 86.208431 56.32175 144.759965 56.32175 63.323211 0 131.926682-23.401989 193.173604-65.893756 1.449002-1.004887 2.684132-2.289136 3.632737-3.776 26.098401-40.911782 54.924937-61.656245 85.679381-61.656245 0.465604 0 0.927115 0.004093 1.394766 0.013303 0.176009 0.00307 0.356111 0.00307 0.533143 0 39.661302-0.827855 69.78539 20.933775 91.981924 66.594721 23.947412 94.491071 37.82549 185.187723 40.145325 262.381849C932.718529 536.962531 918.311401 612.540857 887.010511 665.690358z"  /></svg>