<svg class="svg-icon" style="width: 1em; height: 1em;vertical-align: middle;fill: currentColor;overflow: hidden;" viewBox="0 0 1024 1024" version="1.1" xmlns="http://www.w3.org/2000/svg"><path d="M60.404494 1024h2.876405c-1.438202 0-2.876404-1.438202-2.876405-1.438202v1.438202z" fill="#77A0E8" /><path d="M184.089888 471.730337c2.876404-66.157303 1.438202-256 2.876404-283.325843 4.314607-27.325843 31.640449-71.910112 41.707865-104.988764 4.314607-11.505618 7.191011-25.88764 8.629214-37.393258-8.629213-1.438202-17.258427-2.876404-24.449438-4.314607 0 1.438202-1.438202 2.876404-1.438203 5.752809 1.438202-1.438202 4.314607 0 4.314607 2.876405-1.438202 11.505618-41.707865 117.932584-51.775281 117.932584-5.752809 0-51.775281-56.089888-61.842696-70.47191l-10.067416 15.820225h2.876404c73.348315 110.741573 70.47191 251.685393 63.280899 257.438202-8.629213 1.438202-23.011236-46.022472-120.808989-35.955056l-1.438202-1.438203 4.314607 25.887641v-1.438202c58.966292-4.314607 103.550562 35.955056 113.617977 54.651685 8.629213 15.820225 4.314607 77.662921-4.314606 126.561798 8.629213-7.191011 18.696629-14.382022 28.764045-21.573034 2.876404-14.382022 4.314607-30.202247 5.752809-46.022472z" fill="#437DFF" /><path d="M999.550562 494.741573c-37.393258-76.224719-135.191011-104.988764-211.415731-116.494382-56.089888-27.325843-125.123596-14.382022-185.528089-4.314607-14.382022 2.876404-27.325843 4.314607-38.831461 7.191012H560.898876c-27.325843 7.191011-58.966292 12.94382-90.606741 17.258426-64.719101 10.067416-132.314607 20.134831-176.898877 57.52809-18.696629 2.876404-30.202247 14.382022-38.83146 21.573034-5.752809 5.752809-8.629213 8.629213-12.94382 10.067416-7.191011 0-20.134831 2.876404-35.955057 10.067416-2.876404 1.438202-5.752809 2.876404-8.629213 5.752809l-18.696629 14.382022c-11.505618 69.033708-38.831461 135.191011-71.910113 188.404494 0 0 0-1.438202 1.438203-1.438202 46.022472-5.752809 162.516854-24.449438 162.516853-38.831461 11.505618-14.382022 21.573034-30.202247 35.955057-41.707865-1.438202-14.382022 5.752809-20.134831 7.191011-33.078651-2.876404-5.752809-7.191011-21.573034-5.752809-25.887641 2.876404 0 1.438202 5.752809 5.752809 4.314607 0-10.067416 1.438202-10.067416 7.191011-10.067416-7.191011 17.258427-4.314607 43.146067-11.505618 60.404495 17.258427-8.629213 33.078652-18.696629 47.460674-30.202248 2.876404-31.640449-10.067416-34.516854-11.505618-51.775281 8.629213 1.438202 5.752809 14.382022 12.943821 15.820225 5.752809-12.94382 8.629213-34.516854 10.067415-46.022472 2.876404 5.752809 7.191011 10.067416 2.876405 17.258427 8.629213 2.876404 5.752809-10.067416 11.505618-4.314607-14.382022 12.94382-27.325843 41.707865-17.258427 64.719102 12.94382-14.382022 31.640449-24.449438 50.337078-31.64045 4.314607-23.011236-7.191011-34.516854-8.629213-47.460674 7.191011 1.438202 4.314607 12.94382 10.067416 12.94382 4.314607-8.629213-2.876404-27.325843 4.314606-31.640449 1.438202 8.629213-1.438202 21.573034 4.314607 24.449438-11.505618 5.752809-7.191011 25.88764-8.629213 40.269663 20.134831-8.629213 30.202247-23.011236 48.898876-28.764045 2.876404-18.696629-8.629213-33.078652-10.067416-41.707865 4.314607 2.876404 5.752809 8.629213 10.067416 10.067416 0-7.191011-2.876404-17.258427 2.876405-18.69663 4.314607 10.067416 0-1.438202 5.752809-2.876404-4.314607 10.067416-7.191011 25.88764-5.752809 50.337078 20.134831-4.314607 35.955056-12.94382 53.213483-18.696629-2.876404-8.629213 0-11.505618-1.438203-21.573033-5.752809-5.752809-17.258427-5.752809-18.696629-15.820225 8.629213 5.752809 14.382022 8.629213 23.011236 11.505618-1.438202-8.629213 4.314607-23.011236 8.629214-20.134832-4.314607 11.505618-8.629213 24.449438-5.752809 41.707866 17.258427-4.314607 31.640449-12.94382 53.213483-14.382023 2.876404-23.011236-12.94382-27.325843-18.696629-40.269663 14.382022 7.191011 17.258427 12.94382 20.134831 18.696629 2.876404 10.067416 4.314607-1.438202 12.94382-2.876404-1.438202 5.752809-10.067416 14.382022-8.629213 24.449438 18.696629 0 28.764045-4.314607 41.707865-10.067416-7.191011-5.752809-5.752809-28.764045-14.382022-40.269663 11.505618 7.191011 12.94382 27.325843 18.696629 38.831461 12.94382-4.314607 24.449438-4.314607 40.269663-2.876404 2.876404-18.696629-2.876404-23.011236-4.314607-35.955057 5.752809 1.438202 1.438202 12.94382 7.191011 12.943821 1.438202-4.314607 7.191011-12.94382 10.067416-10.067416-5.752809 8.629213-11.505618 17.258427-8.629214 33.078652 11.505618 0 28.764045-4.314607 35.955057 1.438202 10.067416-4.314607 7.191011-20.134831 7.191011-28.764045 4.314607 0 1.438202 11.505618 4.314607 12.94382 5.752809 1.438202 7.191011-14.382022 11.505618-7.191011-4.314607 10.067416-14.382022 12.94382-17.258427 24.449438 8.629213 2.876404 21.573034 1.438202 30.202247 4.314607 5.752809-5.752809 10.067416-11.505618 18.696629-14.382023 0 8.629213-14.382022 8.629213-8.629213 14.382023 11.505618-1.438202 11.505618 0 24.449438-1.438202 0 4.314607-7.191011 2.876404-7.191012 5.752809 2.876404 5.752809 14.382022 0 14.382023 4.314606 0 2.876404-1.438202 1.438202 0 4.314607-17.258427-1.438202-31.640449-7.191011-48.898876-8.629213 1.438202 5.752809 10.067416 7.191011 10.067415 12.94382-8.629213-10.067416-30.202247-17.258427-46.022472-18.696629-1.438202 8.629213 10.067416 5.752809 8.629214 14.382022-8.629213-18.696629-53.213483-11.505618-74.786517-8.629213 4.314607 1.438202 15.820225 5.752809 10.067416 11.505618-18.696629-18.696629-47.460674 2.876404-73.348315 5.752809 4.314607 2.876404 17.258427 5.752809 12.94382 10.067415-24.449438-14.382022-54.651685-4.314607-73.348314 11.505618 5.752809 0 14.382022 8.629213 12.94382 11.505618-20.134831-17.258427-60.404494-1.438202-73.348315 15.820225 7.191011 2.876404 18.696629 1.438202 20.134832 11.505618-24.449438-15.820225-33.078652-2.876404-53.213483 5.752809-11.505618 5.752809-25.88764 4.314607-27.325843 15.820225 11.505618 2.876404 28.764045 8.629213 28.764045 17.258427-25.88764-25.88764-54.651685-5.752809-73.348315 15.820224 4.314607 7.191011 10.067416-4.314607 11.505618 0 0 2.876404-2.876404 1.438202-4.314606 4.314607 5.752809 1.438202 15.820225 0 20.134831 2.876405 1.438202 5.752809-11.505618-1.438202-10.067416 4.314606 4.314607 5.752809 8.629213-1.438202 8.629214 7.191012-25.88764-23.011236-60.404494-8.629213-76.224719 17.258426 11.505618 8.629213 37.393258 0 46.022472 10.067416-7.191011 0-10.067416-2.876404-18.69663-1.438202-4.314607 2.876404 12.94382 10.067416 7.191012 14.382022-10.067416-8.629213-21.573034-18.696629-40.269663-18.696629-8.629213 11.505618-15.820225 23.011236-24.449439 34.516854 12.94382 2.876404 24.449438 8.629213 33.078652 17.258427 8.629213 1.438202 15.820225-7.191011 18.696629 2.876405-7.191011 0-10.067416-2.876404-18.696629-1.438203-1.438202 4.314607 2.876404 12.94382-1.438202 14.382023-2.876404-4.314607-2.876404-11.505618-4.314607-17.258427-14.382022-12.94382-38.831461-12.94382-56.089887-1.438202 2.876404 15.820225 2.876404 35.955056 14.382022 43.146067-5.752809 0-7.191011-7.191011-14.382022-5.752809 0 4.314607-4.314607 12.94382-5.752809 8.629214 4.314607-10.067416 8.629213-28.764045 2.876404-41.707866-12.94382 2.876404-23.011236 7.191011-33.078652 12.943821 0 0-11.505618-2.876404-67.595505 17.258427l-51.775281 1.438202c-12.94382 17.258427-25.88764 33.078652-40.269663 47.460674l-10.067416-15.820225c1.438202 0 2.876404-30.202247 4.314607-30.202247 64.719101-74.786517 96.359551-138.067416 104.988764-172.58427 1.438202-7.191011 2.876404-15.820225 4.314607-24.449438l-18.69663 14.382023c-5.752809 2.876404-10.067416 5.752809-14.382022 8.629213C64.719101 598.292135-15.820225 670.202247 2.876404 776.629213l2.876405 8.629214c1.438202 2.876404 2.876404 14.382022 0 23.011236-5.752809 20.134831 4.314607 50.337079 7.191011 60.404494l1.438202 2.876405v1.438202c35.955056 50.337079 74.786517 73.348315 129.438203 76.224719h8.629213c58.966292 0 104.988764-30.202247 136.629214-71.910112 23.011236-31.640449 37.393258-69.033708 40.269663-107.865169 17.258427-31.640449 54.651685-47.460674 92.044943-64.719101 23.011236-10.067416 47.460674-20.134831 67.595506-34.516854 20.134831-2.876404 31.640449-14.382022 40.269663-23.011236 2.876404-2.876404 5.752809-5.752809 8.629213-7.191011 15.820225-7.191011 30.202247-14.382022 46.022472-21.573034 37.393258-18.696629 74.786517-37.393258 116.494382-51.775281 31.640449-2.876404 67.595506-1.438202 104.988764 1.438203 63.280899 4.314607 129.438202 8.629213 181.213484-14.382023h1.438202c20.134831-11.505618 24.449438-31.640449 11.505618-58.966292zM386.876404 677.393258z" fill="#437DFF" /></svg>