<svg class="svg-icon" style="width: 1em; height: 1em;vertical-align: middle;fill: currentColor;overflow: hidden;" viewBox="0 0 1024 1024" version="1.1" xmlns="http://www.w3.org/2000/svg"><path d="M133.860219 825.532833c-21.034059 0-48.301076-10.565636-58.741869-60.901045-0.162706-0.783853-0.25378-1.578961-0.273223-2.378164l-1.343601-55.186903C50.211077 616.471376 41.705356 533.582551 48.22177 460.682217c6.451946-72.181973 27.269064-131.442658 61.874209-176.136579 43.601031-56.31254 107.510596-86.078471 184.817286-86.078471 37.530778 0 78.248132 7.002484 121.023354 20.812001 0.033769 0.011256 0.067538 0.021489 0.101307 0.032746 142.936433 47.417963 281.647635 60.243059 445.887256 64.884776 1.322112-0.030699 2.639107-0.046049 3.941775-0.046049 45.454238 0 82.055854 18.562774 100.416014 50.92688 17.475 30.803563 15.165398 69.103868-6.335289 105.080244-0.130983 0.218988-0.268106 0.433882-0.410346 0.644683-22.438035 33.066093-48.978505 39.567157-72.39482 45.301765-21.190625 5.190209-41.210587 10.093892-61.259202 34.136471-34.605146 45.25674-84.040045 78.040401-155.547659 103.160521-63.080687 22.160719-137.750317 36.518728-230.459812 51.259454-1.641383 0.260943-3.314489 0.211824-4.935406-0.143263-7.334036-1.606591-15.055904-2.421142-22.952758-2.421142-42.61047 0-90.576925 22.945595-135.069255 64.60746C215.155756 796.47503 168.359964 825.532833 133.860219 825.532833zM101.413226 760.37688c8.336876 38.547944 25.824155 38.549991 32.446993 38.549991 18.48705 0 55.116295-14.124695 124.629485-81.416288 0.052189-0.050142 0.104377-0.100284 0.156566-0.149403 49.464575-46.347584 103.921861-71.871911 153.340387-71.871911 8.912997 0 17.686824 0.843204 26.118867 2.51017 165.851329-26.430976 298.120818-54.100152 366.796944-144.122445 0.110517-0.145309 0.225127-0.287549 0.340761-0.427742 25.715685-30.977525 52.201919-37.464263 75.570139-43.187615 22.26305-5.453199 39.865963-9.763364 56.493665-34.08326 16.271592-27.421536 18.402115-55.821353 5.835915-77.971839-13.95585-24.600281-43.547819-38.35761-80.899518-37.402865-0.240477 0.00614-0.476861 0.00614-0.715291-0.001023-166.726256-4.697999-307.71636-17.760502-453.821973-66.222237-40.107463-12.942777-78.056774-19.507286-112.791879-19.507286-68.771293 0-125.405151 26.197662-163.780157 75.760474-64.415079 83.193771-75.892481 229.373061-31.490202 401.056212 0.254803 0.983397 0.394996 1.991354 0.419556 3.006474L101.413226 760.37688z"  /></svg>