<svg class="svg-icon" style="width: 1em; height: 1em;vertical-align: middle;fill: currentColor;overflow: hidden;" viewBox="0 0 1024 1024" version="1.1" xmlns="http://www.w3.org/2000/svg"><path d="M348.303242 940.003957c-4.243651 0-8.413624-2.025123-10.991332-5.791913-4.148483-6.063089-2.597151-14.34266 3.466961-18.49012 237.785661-162.699546 310.176388-422.843424 193.652512-695.938266-3.364631-7.259334-9.498328-11.543917-15.32401-10.68127-7.127328 1.063215-12.621459 9.67229-14.359033 22.48306-14.157441 131.317815-34.588773 237.45104-60.72913 315.455625-27.221991 81.235163-60.315714 133.289726-101.171214 159.137417-31.836079 20.141736-67.697845 23.482831-106.59269 9.931187-0.062422-0.021489-0.124843-0.044002-0.187265-0.066515-45.528939-16.630772-74.497715-52.822043-83.775009-104.661711-11.660574-65.157999 7.879458-152.267962 55.021128-245.284449 47.293119-93.314269 117.144-181.932586 196.685591-249.5281 0.198521-0.168846 0.401136-0.330528 0.608867-0.487094 22.858614-17.22429 45.174875-28.240181 66.327638-32.741705 21.88545-4.65809 42.694381-2.473331 61.844533 6.491855 53.071729 24.843828 90.739631 100.138698 111.138216 220.425272 5.763261-34.170241 7.253194-68.156286 4.294816-100.479459-4.185322-45.741787-17.151635-85.844134-36.510542-112.919792-4.273327-5.976108-2.891863-14.285355 3.085268-18.558681 5.976108-4.273327 14.285355-2.892887 18.558681 3.084245 22.063505 30.859845 36.753065 75.596745 41.362037 125.970016 4.972245 54.341652-1.774413 112.934119-19.515473 169.595606l4.066619 82.670861c0.002047 0.050142 0.005117 0.110517 0.008186 0.161682l0 0.00307c0.361227 7.337105-5.294586 13.57825-12.631692 13.9405-7.329942 0.367367-13.580297-5.29254-13.942547-12.629645l-0.00921-0.182149c-4.927219-99.41829-17.655102-180.325995-37.82856-240.476957C576.073806 164.428933 550.707069 127.59912 521.500886 113.926726c-28.503171-13.34289-62.336744-5.54632-100.571556 23.169699-76.786851 65.327868-144.210449 150.910035-189.883675 241.027495-43.899836 86.618776-63.058175 169.929204-52.564169 228.569766 7.615445 42.553165 30.030967 70.924329 66.621327 84.323501 31.239492 10.861372 58.561767 8.463766 83.519182-7.322779 34.982746-22.132066 65.319681-70.952982 90.168626-145.106866 25.541723-76.223009 45.567825-180.52861 59.521628-310.020846 0.01228-0.109494 0.024559-0.217964 0.039909-0.326435 3.992941-30.057573 21.642926-43.187615 36.82879-45.452191 17.704221-2.642177 35.18843 7.840572 43.513026 26.079982 0.046049 0.100284 0.090051 0.200568 0.13303 0.300852 30.432103 71.282486 48.987714 142.555763 55.152111 211.840756 6.075369 68.285223 0.13917 134.763286-17.641799 197.585077-17.693987 62.512752-47.102784 121.372302-87.409792 174.946474-40.503483 53.834092-92.021833 102.329597-153.125493 144.136771C353.506754 939.250804 350.891184 940.003957 348.303242 940.003957z"  /><path d="M401.398508 974.887442c-4.445242 0-8.788154-2.226714-11.308557-6.279007-3.880377-6.239098-1.967818-14.44192 4.270257-18.322297 144.453996-89.844238 234.228649-239.84967 274.452769-458.586486 0.89744-4.876054 4.387937-8.728802 8.900717-10.223852 1.39579-2.041496 4.567016-7.945973 9.54233-24.163329 4.594645-14.981203 9.496282-34.434254 15.171538-56.958246 25.596981-101.590769 64.277956-255.115352 152.560628-306.480206 6.352685-3.696182 14.495132-1.541099 18.188244 4.808516 3.695159 6.350638 1.542122 14.494109-4.807493 18.188244-78.601172 45.731554-115.635647 192.719256-140.141784 289.983487-6.66377 26.447349-12.418844 49.288566-17.949814 65.811892-3.931542 11.741415-8.6848 24.048719-16.519232 30.391171-20.47431 108.163465-52.058656 197.841927-96.472192 273.969768-23.568788 40.399105-51.124378 77.164451-81.900312 109.274776-31.55774 32.927947-67.549465 62.056358-106.974383 86.575798C406.225443 974.238666 403.797138 974.887442 401.398508 974.887442z"  /><path d="M728.755184 181.366697c-0.446162 0-0.89437-0.022513-1.344624-0.068562-5.443989-0.551562-9.996678-4.381797-11.470239-9.651824-12.149714-43.439348-23.593348-73.837682-46.133713-100.67184-4.725628-5.626137-3.996011-14.017248 1.630127-18.741853 5.625114-4.726651 14.016225-3.996011 18.741853 1.630127 19.866467 23.650653 31.914874 48.880267 42.442648 80.889285 18.473747-28.519544 40.845267-51.949162 70.024843-73.709769 5.889127-4.391007 14.223956-3.179412 18.615986 2.711761 4.39203 5.889127 3.178389 14.223956-2.710738 18.61701-34.545794 25.762757-58.591443 54.066383-77.966723 91.77317C738.289328 178.607864 733.700823 181.366697 728.755184 181.366697z"  /></svg>